<svg viewBox="184.21621621621625 229.95000000000005 805.9459459459459 1149.7500000000002" xmlns="http://www.w3.org/2000/svg" overflow="visible" xmlns:xlink="http://www.w3.org/1999/xlink" width="805.9459459459459px" height="1149.7500000000002px"><g id="Master/Character/Bust" stroke="none" stroke-width="1" fill="none" fill-rule="evenodd"><g id="Body" transform="translate(147.000000, 639.000000) scale(1 1)"><g id="Body/Tee Arms Crossed" stroke="none" stroke-width="1" fill="none" fill-rule="evenodd"><path d="M659.933269,217.976991 C651.249269,214.880991 642.879269,211.304991 635.253269,206.044991 C613.270269,189.681991 598.936269,165.056991 585.392269,141.725991 C566.314269,107.792991 552.723269,71.6349913 543.328269,33.9149913 C539.291269,17.7089913 537.920269,-1.08100866 528.748269,-15.4490087 C507.956269,-45.5340087 446.987269,-41.6360087 414.612269,-36.3550087 C392.932269,-32.5190087 388.451269,-8.25700866 383.527269,9.69599134 C379.427269,24.6129913 376.743269,39.6989913 374.490269,54.9869913 C369.130269,58.5109913 363.079269,61.3729913 357.311269,63.8659913 C294.452269,83.1409913 283.404269,118.874991 259.395269,174.072991 C218.844269,254.301991 108.809269,285.714991 92.1882694,380.663991 C81.4792694,443.348991 111.932269,502.321991 143.329269,554.433991 C172.569269,611.354991 213.390269,638.674991 278.399269,625.226991 C339.374269,611.548991 397.974269,588.667991 457.876269,570.986991 C486.889269,563.853991 515.856269,545.299991 546.375269,551.768991 C609.260269,565.891991 673.871269,572.531991 738.317269,570.698991 C828.801269,574.357991 828.787269,487.512991 819.500269,420.259991 C812.995269,315.598991 760.205269,248.394991 659.933269,217.976991 L659.933269,217.976991 Z" id="Skin" fill="#edb98a"/><path d="M665.982669,369.421691 C673.543669,374.421691 679.902669,382.002691 685.007669,389.980691 C663.695669,387.763691 642.420669,385.207691 621.192669,382.297691 C623.971669,380.521691 626.776669,378.784691 629.645669,377.144691 C640.112669,371.246691 654.294669,361.693691 665.982669,369.421691 Z M311.897669,432.419691 C307.992669,430.890691 306.481669,424.936691 304.959669,421.523691 C300.187669,410.820691 295.832669,399.935691 291.301669,389.128691 C308.505669,384.224691 325.235669,378.783691 343.057669,376.169691 C362.220669,373.361691 381.666669,372.681691 401.006669,373.312691 C440.180669,374.590691 478.990669,380.992691 517.504669,387.857691 C555.973669,394.714691 594.440669,401.302691 633.178669,406.472691 C671.131669,411.537691 709.204669,415.244691 747.348669,418.498691 C754.759669,419.131691 767.116669,421.796691 773.076669,415.964691 C777.795669,411.345691 777.948669,402.826691 772.043669,399.071691 C768.365669,396.730691 763.036669,396.696691 758.834669,396.156691 C753.542669,395.475691 748.229669,395.022691 742.905669,394.669691 C740.736669,394.526691 738.567669,394.394691 736.397669,394.262691 C753.814669,387.695691 772.005669,384.114691 790.887669,385.112691 C791.955669,391.599691 796.766669,398.273691 799.399669,403.623691 C803.997669,412.963691 807.581669,422.416691 809.934669,432.572691 C814.852669,453.800691 815.066669,475.832691 813.677669,497.483691 C812.401669,515.535691 809.660669,535.503691 795.500669,548.288691 C784.779669,557.968691 769.653669,561.552691 755.620669,562.679691 C739.310669,563.989691 722.748669,562.590691 706.575669,560.404691 C683.891669,557.337691 661.101669,553.281691 638.863669,547.845691 C595.792669,537.317691 554.508669,520.565691 516.419669,497.853691 C497.844669,486.778691 480.120669,474.318691 461.290669,463.664691 C442.103669,452.806691 421.687669,444.383691 400.249669,439.153691 C376.258669,433.300691 351.178669,430.802691 326.520669,432.246691 C322.241669,432.496691 316.059669,434.048691 311.897669,432.419691 Z M284.095669,421.551691 C286.616669,429.732691 288.545669,439.073691 293.926669,445.947691 C299.256669,452.759691 307.297669,455.163691 315.627669,455.769691 C325.671669,456.498691 335.833669,456.031691 345.899669,456.405691 C366.544669,457.172691 386.906669,460.525691 406.642669,466.676691 C425.034669,472.409691 442.107669,481.351691 458.553669,491.271691 C473.761669,500.445691 488.523669,510.294691 503.736669,519.440691 C499.687669,521.296691 495.684669,523.304691 491.659669,525.052691 C483.217669,528.718691 474.723669,532.255691 466.191669,535.704691 C449.366669,542.504691 432.470669,549.139691 415.401669,555.303691 C380.983669,567.732691 345.999669,578.591691 310.594669,587.841691 C293.708669,592.253691 276.582669,597.406691 259.039669,598.140691 C243.483669,598.790691 229.074669,594.393691 216.528669,585.144691 C190.506669,565.960691 169.803669,538.270691 153.067669,510.957691 C143.124669,494.730691 134.447669,477.680691 127.270669,460.051691 C123.640669,451.136691 120.348669,442.084691 117.385669,432.926691 C115.995669,428.626691 114.677669,424.302691 113.429669,419.958691 C112.880669,418.048691 112.354669,416.132691 111.833669,414.214691 C138.442669,406.094691 165.367669,398.764691 192.924669,394.695691 C207.637669,392.522691 222.546669,391.422691 237.420669,391.582691 C244.803669,391.661691 252.182669,392.060691 259.526669,392.822691 C263.479669,393.232691 267.416669,393.760691 271.336669,394.414691 C272.956669,394.683691 274.621669,395.081691 276.291669,395.374691 C278.842669,404.115691 281.414669,412.849691 284.095669,421.551691 Z M834.137669,386.797691 C835.571669,383.896691 836.176669,381.042691 836.690669,377.884691 C837.082669,375.475691 838.122669,372.084691 837.211669,368.956691 C836.191669,365.453691 833.412669,362.320691 831.417669,359.332691 C829.214669,356.030691 827.013669,352.726691 824.815669,349.420691 C820.418669,342.809691 816.031669,336.192691 811.651669,329.570691 C793.764669,302.529691 775.999669,275.410691 758.206669,248.308691 C742.416669,224.257691 726.892669,199.990691 710.621669,176.262691 C696.708669,155.972691 681.543669,136.017691 662.499669,120.237691 C638.420669,100.285691 609.748669,90.8866913 579.799669,83.5526913 C576.528669,80.1576913 572.159669,78.3036913 567.489669,78.6796913 C560.891669,71.1966913 555.647669,65.9696913 553.270669,56.4536913 C552.131669,51.8956913 552.488669,39.0886913 548.049669,36.3916913 C542.776669,33.1876913 540.022804,37.4283269 538.568669,42.2076913 C533.703669,58.1976913 539.287669,79.6956913 552.137669,95.7126913 C546.723669,114.423691 539.545669,141.015691 526.740669,156.005691 C513.028669,172.056691 494.065669,177.052691 473.605669,177.381691 C434.587669,178.009691 395.610669,163.508691 365.849669,138.376691 C356.803669,130.738691 348.402669,122.207691 340.801669,113.134691 C335.100669,106.327691 328.356669,95.8226913 323.896669,87.8826913 C323.896669,84.7884677 320.243364,81.5526913 357.436669,79.0526913 C394.629975,76.5526913 397.450669,25.6256913 398.277669,18.6946913 C398.949669,13.0666913 401.807669,4.33069134 397.841669,-0.25830866 C396.158669,-2.20730866 392.704669,-2.52130866 390.570669,-1.19730866 C386.546669,1.30169134 385.224669,7.69169134 383.959669,12.0306913 C382.187669,18.1096913 376.394669,55.8366913 365.417669,60.2046913 C360.278669,62.2496913 354.384669,62.2876913 348.948669,62.6656913 C342.235669,63.1346913 335.508669,63.4776913 328.822669,64.2586913 C326.356669,64.5466913 323.666669,65.3446913 321.233669,65.3676913 C319.650669,65.3826913 318.017669,64.6136913 316.487669,64.0736913 C311.323669,62.2486913 306.163669,63.6176913 300.843669,64.3326913 C253.807669,70.6536913 205.376669,85.0806913 165.256669,111.039691 C129.894669,133.919691 104.981669,166.824691 88.5426694,205.296691 C71.7696694,244.558691 62.1556694,287.015691 54.0986694,328.811691 C51.3996694,342.815691 49.0426694,356.884691 47.0176694,371.001691 C45.0606694,384.642691 42.6126694,398.588691 42.0266694,412.367691 C41.7946694,417.819691 43.0976694,422.884691 45.1026694,427.864691 C47.3606694,433.469691 52.6976694,435.679691 57.8166694,438.296691 C69.0536694,444.044691 80.9076694,448.502691 93.1206694,451.659691 C100.581669,465.232691 106.860669,479.335691 111.906669,493.972691 C110.034669,497.681691 109.995669,503.220691 109.635669,506.825691 C108.742669,515.802691 108.360669,524.826691 108.280669,533.844691 C108.119669,551.919691 109.206669,569.976691 110.058669,588.023691 C110.922669,606.327691 113.794669,678.546691 114.262669,687.365691 C114.626669,694.216691 114.136669,703.799691 117.745669,709.881691 C123.291669,719.230691 136.979669,718.915691 143.319669,711.335691 C300.843669,745.199492 596.944369,734.999691 716.198669,717.961691 C731.714856,715.744876 726.842669,718.203691 730.788669,714.283691 C733.749669,711.339691 736.269669,706.298691 737.088669,702.247691 C738.182669,696.839691 736.416669,691.945691 733.320669,687.569691 C730.065669,682.969691 729.472669,675.519691 728.263669,670.049691 C725.404669,657.118691 723.983669,600.328691 722.647669,594.035691 C722.231669,592.074691 721.828669,590.001691 721.342669,587.927691 C743.217669,589.999691 766.010669,589.999691 786.821669,582.683691 C798.622669,578.534691 809.628669,572.017691 818.100669,562.712691 C828.358669,551.445691 834.065669,537.261691 837.000669,522.456691 C840.787669,503.365691 841.591669,483.590691 840.847669,464.183691 C839.813669,441.247691 836.009669,417.988691 826.567669,396.929691 C829.674669,394.044691 832.278669,390.563691 834.137669,386.797691 Z" id="Ink" fill="#000"/></g></g><g id="Head" transform="translate(372.000000, 180.000000) scale(0.9978902953586498 1)"><g id="Head/Beanie" stroke="none" stroke-width="1" fill="none" fill-rule="evenodd"><path d="M244.801076,58.7061513 C289.572611,58.7061513 343.290355,80.4107214 347.857576,80.8448128 L347.980873,80.851412 C350.383805,80.851412 359.773072,88.0046317 376.148674,102.311071 L358.412048,136.905077 L359.847401,138.275654 C366.716004,144.860995 372.579732,150.86334 377.20818,155.594994 C414.999829,194.229324 421.792237,345.918858 412.88601,398.818005 C403.979783,451.717153 387.483712,503.479944 310.685218,503.479944 C233.886725,503.479944 148.446655,457.302629 135.285147,442.922462 C126.510808,433.335685 116.654935,428.742788 105.717528,429.143771 C105.268005,428.576557 104.822108,428.011003 104.379837,427.447111 L102.770605,427.219146 C87.633459,425.026858 76.7873358,422.076066 70.2326472,418.367754 C57.4294952,411.124377 43.3572802,373.045104 43.3572802,364.656723 C43.3572802,356.352227 22.3445065,295.939883 21.924251,289.546864 L21.9178621,289.36978 C21.9178621,284.025444 -5.53321454,259.457893 -5.53321454,251.655721 C-5.53321454,243.853549 -11.0664291,244.32691 -5.53321454,216.833266 L-3.92565876,208.756436 C1.96255037,179.483802 13.4873849,131.012555 57.4294952,109.950337 C105.717528,86.8050433 199.577304,58.7061513 244.801076,58.7061513 Z" id="Skin" fill="#edb98a"/><path d="M244.793497,59 C289.565032,59 343.282776,80.70457 347.849997,81.1386614 L347.973294,81.1452607 C350.376226,81.1452607 359.765493,88.2984803 376.141095,102.60492 L372.160288,110.364039 C284.009622,112.095217 223.337123,119.259615 190.142792,131.857234 C151.660133,146.461831 127.502474,201.947011 117.669814,298.312773 C104.224511,304.680309 90.7792072,313.061256 77.3339036,323.455616 C63.8886,333.849976 60.4852098,339.218683 67.123733,339.561738 C66.5453697,361.837211 68.3278576,377.392951 72.4711966,386.228956 C76.6145355,395.064961 90.9559204,400.264905 115.495351,401.828787 L115.495351,401.828787 L121.729532,422.705783 L120.867295,432.381225 C116.069485,430.224255 111.017036,429.243053 105.709949,429.43762 C105.260426,428.870406 104.814529,428.304852 104.372258,427.74096 L102.763026,427.512994 C87.62588,425.320707 76.7797568,422.369915 70.2250682,418.661603 C57.4219162,411.418226 43.3497012,373.338952 43.3497012,364.950572 C43.3497012,356.646075 22.3369275,296.233732 21.9166721,289.840712 L21.9102831,289.663629 C21.9102831,284.319293 -5.54079354,259.751741 -5.54079354,251.949569 C-5.54079354,244.147397 -11.0740081,244.620759 -5.54079354,217.127114 L-3.93323776,209.050285 C1.95497137,179.777651 13.4798059,131.306403 57.4219162,110.244186 C105.709949,87.098892 199.569725,59 244.793497,59 Z" id="hat" fill="#9DDADB"/><path d="M49.9759,108.863 C74.05864,83.3012 210.780353,43.763174 279.951662,52.1442952 L282.0269,52.413 C287.5469,53.113 292.9869,54.173 298.3559,55.613 C315.7099,59.666 333.6359,65.803 347.9749,76.054 C359.9459,84.44 397.7089,98.135 386.5789,120.073 C390.7059,127.892 392.2459,137.552 389.4569,145.253 C389.1059,147.913 388.2859,150.363 387.2369,152.903 C396.0539,165.914 403.0349,180.628 408.6859,194.623 C418.5609,229.844 424.7059,266.498 425.6059,302.433 C428.5999,370.705 421.1139,452.256 361.6519,496.404 C325.7309,524.379 269.4629,525.319 229.0959,490.633 C226.8049,487.922 216.0319,480.606 219.6269,479.323 C220.6969,480.453 221.7969,481.553 222.9169,482.633 C222.8659,482.513 222.8559,482.393 222.8769,482.263 L221.823473,481.309028 C219.839749,479.473835 217.269834,476.812131 220.1969,477.333 C220.3259,477.483 220.4669,477.613 220.6059,477.763 C221.225837,478.134875 221.694181,478.457271 222.05859,478.741515 L222.246041,478.891534 L222.188128,478.831293 C220.502038,477.033357 219.491192,475.199546 222.012175,476.370731 L222.3459,476.533 C223.4669,477.713 224.6059,478.843 225.7659,479.943 C225.7469,479.813 225.7659,479.683 225.8369,479.543 L224.75535,478.498176 C223.699588,477.46362 223.860724,477.459206 224.3769,476.623 C222.1329,473.478 226.3219,475.346 226.6159,476.573 C229.2369,475.953 231.5379,480.873 233.2259,481.473 C307.2249,538.363 414.6119,487.884 412.8729,329.359 L412.846346,326.257389 C412.337744,275.567908 408.07202,223.46856 387.1059,177.583 C385.0669,173.163 382.7859,168.863 380.2769,164.703 C378.5469,161.583 376.6969,158.543 374.7069,155.583 C369.1359,155.133 363.6359,154.113 358.2169,152.533 C356.3559,152.063 354.5159,151.543 352.6769,150.933 C325.7969,152.399 299.5159,153.994 272.5609,155.506 L264.141372,156.030389 C241.307275,157.49837 217.69246,159.84959 199.2659,173.973 C181.1859,186.831 181.1039,212.186 165.6269,226.303 C143.5569,241.282 143.3959,254.789 139.1459,276.863 C139.4609,293.503 150.9989,317.68 129.8259,324.683 C133.3979,329.776 128.4189,327.329 128.0269,325.543 C127.9869,325.553 127.9469,325.563 127.9169,325.563 C131.0999,331.48 126.4209,327.754 126.0069,325.853 C125.7569,325.783 125.5069,325.603 125.2569,325.353 C128.4639,330.537 123.2799,326.907 123.5869,325.963 C117.3899,316.438 104.6359,314.959 95.6459,317.483 C95.5359,317.823 95.1369,317.853 94.8869,317.673 C56.6599,325.957 66.5229,405.093 105.6969,397.443 C107.3739,397.101 107.3339,397.906 107.6669,397.983 C106.7619,395.607 109.3129,396.574 109.2859,397.073 L109.441338,397.065453 C109.564505,397.054593 109.514122,397.041111 109.6059,397.073 C108.7309,392.214 113.6549,399.254 113.2659,399.543 C113.4169,399.453 113.5869,399.403 113.7369,399.383 L113.567399,398.921749 C112.750208,396.744712 112.820264,397.649576 112.8259,396.403 C112.2119,394.862 112.1669,395.536 112.3109,394.532 C114.4689,392.86 115.1059,397.932 115.8259,398.303 C114.5919,396.583 115.5729,395.178 116.7369,396.112 C125.5599,414.67 136.9569,432.107 151.6859,445.843 C153.2969,447.113 154.9269,448.363 156.6159,449.543 C162.8809,455 172.4909,458.509 178.3559,463.343 C178.3559,463.423 178.3169,463.523 178.2569,463.623 L178.39115,463.74425 L178.39115,463.74425 L178.5269,463.873 L180.5669,464.853 C181.1669,465.363 181.7069,465.933 182.1859,466.563 C182.6969,467.153 183.1459,467.803 183.5269,468.493 C183.7169,469.333 183.2969,469.683 182.4969,469.323 C182.1459,469.203 181.7969,469.063 181.4469,468.933 C181.4669,468.963 181.4759,468.983 181.4969,469.003 C181.61165,469.176571 182.388451,470.977375 181.493354,470.684363 L181.3869,470.643 C180.8959,470.463 180.4069,470.263 179.9269,470.073 C180.4969,470.783 181.0159,471.553 181.4759,472.203 C181.9669,472.713 182.2659,473.313 182.3869,473.993 C182.3659,474.373 182.1569,474.533 181.7769,474.483 C181.1969,474.293 180.6269,474.093 180.0559,473.883 L180.218285,474.192775 C180.621712,474.986299 181.195061,476.317194 180.1769,475.873 C179.3059,475.603 178.4669,475.293 177.6269,474.953 C177.5559,475.093 177.4169,475.143 177.1369,475.013 C174.4669,474.063 171.8869,472.903 169.4169,471.533 C167.2469,469.953 165.0559,468.403 162.8769,466.833 C160.8259,465.603 158.8459,464.233 156.9569,462.693 C144.3109,454.525 133.2399,444.149 124.4569,432.593 C109.7679,445.314 80.3989,433.161 62.2319,423.203 C46.1629,414.303 39.8469,397.847 38.2139,380.105 C34.8189,356.219 15.2989,348.043 16.6569,295.633 C16.6269,295.643 16.5959,295.643 16.5559,295.643 C15.8459,295.433 15.1569,295.153 14.5069,294.793 C13.8369,294.473 13.2069,294.093 12.6159,293.633 L11.8859,292.623 L11.8859,292.623 C11.5069,292.413 11.1669,292.193 10.9069,291.973 L10.7720626,292.146894 C10.3452333,292.661965 10.63215,291.887 10.6569,291.733 L9.38875352,290.0084 C6.38188437,285.903078 3.083025,281.29675 0.3959,277.613 L0.311258601,277.762679 C0.250471429,277.875653 0.218328571,277.957286 0.2469,277.993 C-6.1481,268.805 -12.1621,257.707 -13.8331,246.963 C-15.8061,238.687 -15.0351,230.159 -13.3141,222.493 C-5.9351,195.648 18.2369,134.9 49.9759,108.863 Z M223.523686,480.116032 L223.122951,479.759136 L223.475308,480.200613 C223.659955,480.42876 223.84899,480.63382 224.1569,480.843 C224.1369,480.773 224.1369,480.703 224.1459,480.623 C223.941698,480.467121 223.732905,480.296655 223.523686,480.116032 Z M279.6459,65.633 C232.7379,61.6 186.6009,71.934 141.8389,84.443 L138.751029,85.3305184 C113.298885,92.5930675 86.385913,99.1281948 64.8769,114.673 C34.8259,137.69 19.3079,174.306 5.7659,208.113 C-6.0591,233.231 -0.0141,261.554 17.8059,279.093 C19.6599,261.664 22.8209,244.745 27.7609,227.962 C28.7919,225.34 28.0119,224.481 30.2339,224.139 C33.5899,269.367 17.0609,302.783 49.7709,356.385 C63.9639,381.677 47.5339,400.183 87.6139,413.492 L88.6985408,413.90645 C97.0486222,417.057302 106.167483,419.544417 114.3459,417.783 L113.613193,416.591163 C112.865939,415.363801 112.639181,414.768 113.7259,414.243 C113.6969,414.183 113.6569,414.123 113.6159,414.053 C112.7369,412.393 111.8869,410.713 111.0759,409.013 C110.7469,409.123 110.4169,409.203 110.0759,409.293 C110.2969,409.703 110.3259,410.113 109.7069,410.253 C107.5033,411.009 105.240464,411.312022 102.924085,411.170197 L102.4269,411.133 C99.8099,410.973 98.1609,410.496 96.6859,410.053 C96.1969,409.973 95.7069,409.893 95.2259,409.793 C90.4809,408.741 85.4579,406.065 82.2069,403.413 C45.1489,382.365 48.9789,310.716 94.6569,303.943 C95.5939,258.831 117.0509,182.723 152.6609,139.736 C184.8489,100.195 272.7229,83.057 333.8589,89.1 C334.7499,89.395 335.6409,89.693 336.5319,89.994 C345.9639,90.832 354.9529,95.034 364.3919,96.986 C357.6149,91.907 349.9269,88.524 342.0079,85.649 C326.2299,75.998 308.1419,70.776 290.6669,67.093 C287.0469,66.203 283.3769,65.713 279.6459,65.633 Z M92.5662,340.1829 C95.0222,338.8489 94.7412,340.1369 95.3062,339.7629 C112.9722,338.3219 132.0212,353.7889 141.8962,366.6829 C141.1162,367.4929 139.0062,365.0929 138.6362,364.7129 C138.5862,364.7629 138.5262,364.8029 138.4662,364.8229 L138.741174,365.210988 C142.74361,370.954718 134.809221,364.195942 134.0662,362.8029 C133.9362,362.8729 133.8062,362.9129 133.6562,362.8829 C134.2852,363.4999 136.2062,365.1089 136.5362,366.2529 L137.045494,366.676733 C141.847898,370.78921 141.449332,373.882812 135.9972,368.0429 C136.1262,368.3129 136.1762,368.5629 136.0862,368.7629 L136.27393,368.888003 C138.954977,370.761539 141.159882,375.984218 135.5562,370.6229 C136.1392,374.5389 130.0032,366.9699 129.8062,367.0229 C119.1882,358.6879 103.5552,350.5819 90.2362,349.4929 L89.77779,349.440232 C87.3337388,349.126208 86.1782,348.401043 87.0362,346.8029 C84.0262,346.0869 84.7312,344.6049 86.1562,344.6529 C84.0332,343.2569 85.9442,341.9219 87.1762,342.4429 C86.3292,340.0979 89.7262,341.6599 90.0362,341.3329 C91.7992,338.6139 92.2742,340.8819 92.5662,340.1829 Z M55.5363,194.8329 C64.0213,191.7249 89.0843,201.0289 87.0793,213.3509 C85.8853,216.1799 81.9513,217.8009 79.1863,216.2039 L75.5774719,213.780141 C69.2971698,209.574177 63.6330368,205.886111 56.8903,202.2179 C53.2203,200.3969 51.6403,196.5309 55.5363,194.8329 Z M103.8112,176.5217 L100.534261,174.389194 C82.8503248,162.815592 57.8511,145.27882 102.1862,163.4227 C107.2392,165.5897 113.9532,166.8717 116.7102,171.6837 C121.0412,180.5527 109.6432,181.1487 103.8112,176.5217 Z M105.7984,124.5927 C104.3794,119.2077 122.0364,125.5267 127.1764,127.1927 L127.959291,127.488387 C132.959307,129.351465 138.6908,131.0798 141.6814,135.3947 C145.1854,141.3567 138.0934,142.5917 133.7004,139.8987 C124.6934,134.0127 114.8184,129.5717 105.7984,124.5927 Z M150.6987,99.5078 C140.76009,88.65443 167.358628,99.0515882 171.342946,101.937672 L171.4567,102.0228 C174.4297,104.1158 173.8267,108.6238 171.0337,109.9478 C163.0867,110.0988 157.2387,103.4748 150.6987,99.5078 Z M195.9247,87.6166 C180.1247,76.2616 200.9377,81.6626 208.1667,86.1126 C213.0937,90.4576 208.0187,97.7926 195.9247,87.6166 Z" id="Ink" fill="#000"/></g></g><g id="Face" transform="translate(531.000000, 366.000000) scale(1 1)" fill="#000"><g id="Face/Cheeky" stroke="none" stroke-width="1" fill="none" fill-rule="evenodd"><path d="M166.9438,221.352 C168.4778,218.685 172.0098,216.214 175.2418,216.593 C189.7208,218.291 189.6958,235.845 184.1048,246.093 C179.1478,255.18 168.8888,260.514 158.6208,259.735 C147.8338,258.916 138.6428,252.574 134.5978,242.483 C131.9228,235.808 130.6868,223.485 137.8028,219 C137.9348,218.916 138.1528,218.937 138.2578,219.058 C141.6698,223.027 141.8038,228.986 144.7908,233.405 C147.5688,237.515 151.8848,240.909 156.9408,241.433 C160.7168,241.825 164.5368,240.463 166.0138,237.073 C166.812891,235.239364 166.721899,234.243744 166.421516,232.981708 L166.148563,231.885055 C165.202801,228.043565 164.778057,225.118714 166.9438,221.352 Z M170.814304,144.367155 C178.365682,148.9572 189.871664,159.660291 181.748119,171.039573 C172.185929,181.073062 158.418535,169.568982 151.634201,164.366134 C145.343449,160.333898 138.275437,170.704507 144.112,175.412823 C193.135736,211.708059 213.030606,145.567387 174.633685,138.970386 C170.406047,138.243425 168.835891,142.947174 170.814304,144.367155 Z M91.0715,112.8926 C95.7065,105.9386 106.2865,106.9626 108.8395,115.2146 C110.2225,119.6846 108.3125,123.7026 108.4115,128.1666 C108.4945,131.9376 108.2475,136.1396 107.0915,139.7916 C104.4555,148.1196 96.9655,154.0016 88.1045,153.7576 C79.2725,153.5146 71.4935,147.9246 67.7945,140.0516 C64.0825,132.1486 64.8685,123.9696 67.5785,115.9336 C67.7085,115.5476 68.2145,115.3606 68.5195,115.6856 C71.7228333,119.089767 74.0678333,122.683517 76.4943148,126.495785 L78.9809333,130.40279 C80.8812656,133.344819 83.6431037,137.103142 87.1914615,136.867072 L87.7238987,136.814547 C88.7099852,136.729908 88.5588846,136.9256 89.3195,135.5816 C89.6715,134.9596 89.6075,133.8036 89.7775,133.0696 L89.8365,132.8216 L89.8365,132.8216 L89.8043384,132.68798 C89.7292832,132.332503 89.6547866,131.66266 89.5942529,130.500284 L89.5815,130.2436 C89.3245,124.8066 87.7875,117.8196 91.0715,112.8926 Z M208.5632,117.5221 C207.7322,108.6281 220.2362,106.6531 224.3932,113.2341 C226.561303,116.665997 227.192546,120.977055 227.67203,125.0615 L227.8962,127.0001 C228.3882,131.1951 228.5832,135.5591 226.7622,139.4721 C223.8942,145.6351 217.6572,148.8931 210.9292,148.3771 C204.5042,147.8831 198.6422,144.1581 195.5522,138.5031 C192.7972,133.4571 190.0582,123.6051 193.4042,118.3421 C193.6062,118.0231 194.0102,117.9821 194.2872,118.2281 C197.4492,121.0351 197.9642,126.1551 199.8442,129.8121 C201.7832,133.5841 204.7242,137.2601 209.1812,137.8331 C213.4452,138.3811 215.0742,136.0521 213.9862,131.9871 C212.5832,126.7391 209.0912,123.1691 208.5632,117.5221 Z M94.4489,60.0159 L96.4937284,59.2327124 C103.499922,56.5860716 113.118768,53.5268605 118.8149,59.2239 C122.3289,62.7369 122.9979,67.9119 120.4899,72.1989 C117.4509,77.3919 111.9999,77.5199 106.7359,78.2849 C100.7489,79.1549 94.6599,80.8089 89.0859,83.1669 C82.8069,85.8239 76.9799,89.1359 71.2709,92.8349 C65.8449,96.3499 60.4379,102.0949 53.9429,103.1779 C53.6779,103.2219 53.3769,103.1079 53.3079,102.8169 C51.8329,96.4669 55.9319,90.2179 59.5899,85.2639 C64.0159,79.2659 69.3789,74.3429 75.3729,69.9289 C81.1579,65.6679 87.7679,62.5889 94.4489,60.0159 Z M221.7162,82.5925 L222.340762,82.4830541 C226.589355,81.7757704 230.439386,81.9386395 233.6412,85.3035 C236.0852,87.8705 237.0272,91.1975 235.8622,94.5915 C234.7872,97.7225 232.3832,100.9035 228.8942,101.5595 C217.1152,103.7755 204.0682,103.4095 192.2302,101.7315 C186.814067,100.963367 181.349151,100.023624 176.073673,98.5415284 L173.646557,97.8379125 C169.242357,96.5798884 164.200291,95.2655909 161.0012,92.0265 C159.8512,90.8625 160.5142,89.1965 161.8902,88.6575 C167.4722,86.4715 175.1232,87.6345 181.0752,87.4635 C187.9992,87.2655 194.9342,86.7465 201.8252,86.0315 C208.5592,85.3315 215.0752,83.8105 221.7162,82.5925 Z" id="Ink" fill="#000"/></g></g><g id="Beard" transform="translate(494.999934, 517.999659) scale(1 1)" fill="#000"><g id="Beard/Full Beard" stroke="none" stroke-width="1" fill="none" fill-rule="evenodd"><path d="M117.724748,95.193032 C125.820991,76.2257701 143.491513,62.2858787 163.836481,57.1894344 C178.77663,53.4564466 194.455798,53.5755739 209.685563,55.0571566 C217.664961,55.82798 226.223589,56.4596548 233.743597,59.4228202 C240.165065,61.9545247 245.398112,66.7396365 249.332884,72.3566369 C254.016661,79.0127473 257.202428,86.6308855 259.439456,94.4392268 C259.757034,95.5494127 260.055637,96.6676073 260.334267,97.7918082 C259.36156,103.683102 257.296304,108.697458 251.839554,112.401415 C246.514629,116.018279 240.161071,117.497859 233.827486,118.023421 C233.206311,117.725102 232.606109,117.418775 232.05584,117.104439 C222.185954,111.454403 215.239184,98.1021397 202.781736,99.90907 C191.664507,101.522794 184.34623,115.510737 177.735014,123.713499 C156.513211,126.186141 135.307387,119.809329 118.040329,107.674365 C117.163494,103.520928 117.112562,99.332454 117.724748,95.193032 M274.758103,80.8046615 C273.060358,76.0405723 270.922199,71.4266434 268.387567,67.0800001 C260.0087,52.7056446 247.14579,41.2524095 231.876079,34.7054157 C195.754073,19.2388934 149.016172,30.1415403 119.844931,55.5076378 C109.880171,64.1789009 99.8045583,76.9215133 96.7576067,90.6281556 C95.8478155,90.8083481 94.9889566,91.2818539 94.2818961,91.9485661 C73.2058992,78.6793912 51.5017369,65.9127532 34.5183023,47.519104 C22.1846896,34.1548275 13.6060877,18.338932 8.35306724,0.959366195 C7.92363781,-0.471161978 5.61670297,-0.261938473 5.68661009,1.32075225 C5.70658355,1.69114793 5.72655701,2.06054254 5.74653047,2.43093821 C5.52682239,1.75021102 4.48820238,2.10058531 4.40830853,2.76129112 C1.58206368,23.8738448 -1.95323907,46.2577565 1.30243521,67.4804278 C3.24984774,80.1439557 9.00220475,89.4148595 16.6919876,99.4255535 C24.9310406,110.156016 34.2586473,120.136678 43.7959753,129.707903 C49.8479342,135.783393 56.1695349,142.790879 63.5796892,147.245638 C72.198238,152.421166 81.9752476,156.35637 91.1730268,160.349636 C100.530594,164.423989 110.027975,168.188009 119.705117,171.451496 C139.049415,177.99849 159.04285,182.523323 179.385821,184.505441 C195.674179,186.08713 214.289446,187.809971 229.898706,181.682425 C241.86281,176.98741 251.519978,168.499342 259.179801,158.287433 C267.518721,147.165552 274.110962,134.497019 277.755121,121.137748 C281.542089,107.260924 275.556042,83.0420517 274.758103,80.8046615" id="Ink" fill="#000"/></g></g><g id="Mask" transform="translate(400.000000, 480.000000) scale(1 1)" fill="#000"><g id="Mask/None" stroke="none" stroke-width="1" fill="none" fill-rule="evenodd" fill-opacity="0"/></g><g id="Accessories" transform="translate(419.000000, 421.000000) scale(1 1)" fill="#000"><g id="Accessories/Glasses" stroke="none" stroke-width="1" fill="none" fill-rule="evenodd"><path d="M389.0901,63.2824 C379.5561,127.7714 313.0021,134.9034 301.1771,70.8814 C303.0751,70.0504 304.4401,68.4144 304.1551,65.2384 C304.0881,51.2864 308.4191,36.5404 321.0051,28.7814 C334.0111,20.7754 349.2321,19.9814 364.2831,20.1834 C393.0051,19.4994 392.4011,43.5064 389.0901,63.2824 M290.7581,35.2354 C281.7441,34.8554 270.3401,35.1734 262.2651,40.6654 C260.0451,34.6874 254.2771,28.3044 248.4491,24.8914 C270.1111,25.5254 292.4091,23.3934 314.2331,21.7384 C309.0091,25.2994 304.1491,30.6494 300.9901,36.8344 C298.0591,35.2714 293.8611,35.4174 290.7581,35.2354 M251.0261,70.1194 C226.0311,156.1554 163.6401,118.6554 156.8381,107.6294 C144.5691,89.3834 142.2611,45.0294 152.9481,33.1704 C168.2461,22.4464 189.9031,25.2064 207.9751,24.9434 C241.1761,25.3914 264.7561,35.3234 251.0261,70.1194 M418.6031,30.5484 C411.8121,29.6604 404.5551,29.4814 398.2411,32.4714 C396.2971,24.2084 390.1941,17.3004 383.3031,14.2604 C382.4691,13.2144 382.5941,12.6524 379.7451,12.8094 C362.2501,7.5514 342.6731,10.3334 325.8611,15.7254 C299.3091,17.9614 271.4521,19.7244 244.6771,22.8054 C219.5951,11.5414 143.9021,9.8904 139.1981,37.6534 C133.2811,36.7684 123.2041,32.1114 118.2321,38.4284 C81.7611,32.2454 44.0761,40.8384 7.4471,44.6654 C-1.7729,46.3634 -6.5219,64.6614 3.9441,64.4114 C9.8281,62.8144 3.7631,53.0174 11.6861,52.2804 C47.0271,48.4204 81.5951,42.9444 117.2981,42.3034 C116.0561,48.4684 140.9121,48.8694 141.2791,45.2694 C141.3321,45.2964 141.3881,45.3144 141.4421,45.3384 C135.3001,68.2284 140.8441,101.1704 151.9441,115.3644 C167.4961,133.9504 206.5411,139.2824 223.8541,127.3244 C246.1871,116.2874 269.4201,60.8854 262.8941,42.4794 C274.7381,38.7254 286.4471,39.8524 298.7391,41.7644 C295.9251,49.7134 291.0671,69.2814 298.0561,70.9784 C296.7731,109.8284 332.1301,134.0694 364.7241,118.1324 C392.9351,104.8894 402.8011,62.9714 399.3491,37.5284 C402.8611,44.3144 432.3491,36.9264 418.6031,30.5484" id="Ink" fill="#000"/></g></g></g></svg>